# xmcd CD database file
#
# Track frame offsets:
#	150
#	17510
#	34830
#	52147
#
# Disc length: 922 seconds
#
# Revision: 1
# Processed by: cddbd v1.5.1PL0 Copyright (c) Steve Scherf et al.
# Submitted via: CDex 1.60beta1
#
DISCID=2c039804
DTITLE=Various Artist - TVアニメーション こみっくパーティー Revolution オープニングテーマ 「Fly」 中山愛梨紗
DYEAR=2005
DGENRE=Anime
TTITLE0=中山愛梨紗 - Fly
TTITLE1=元田恵美 - 一緒に暮らそう
TTITLE2=Fly Original Karaoke
TTITLE3=一緒に暮らそう Original Karaoke
EXTD=YEAR: 2005
EXTT0=
EXTT1=
EXTT2=
EXTT3=
PLAYORDER=
